<?xml version="1.0" encoding="utf-8"?>
<!-- Generator: Adobe Illustrator 16.0.0, SVG Export Plug-In . SVG Version: 6.00 Build 0)  -->
<!DOCTYPE svg PUBLIC "-//W3C//DTD SVG 1.1//EN" "http://www.w3.org/Graphics/SVG/1.1/DTD/svg11.dtd">
<svg version="1.1" id="Layer_1" xmlns="http://www.w3.org/2000/svg" xmlns:xlink="http://www.w3.org/1999/xlink" x="0px" y="0px"
	 width="302px" height="74px" viewBox="0 0 302 74" enable-background="new 0 0 302 74" xml:space="preserve">
<polygon fill="#FFFFFF" points="0.708,1.141 16.267,1.141 22.431,43.103 29.771,1.141 44.449,1.141 29.183,72.906 14.799,72.906 "/>
<rect x="50.907" y="1.141" fill="#FFFFFF" width="14.091" height="71.766"/>
<polygon fill="#FFFFFF" points="71.75,1.141 86.134,1.141 92.886,43.103 100.813,1.141 114.316,1.141 99.344,72.906 86.134,72.906 
	"/>
<path fill="#FFFFFF" d="M143.085,1.141h-13.21l-16.146,71.766h13.699l3.132-15.687h11.352l3.082,15.687h15.118L143.085,1.141z
	 M131.856,48.103c1.542-10,2.302-15.061,4.403-26.569c3.147,17.494,2.194,12.11,4.525,26.721
	C137.263,48.254,135.746,48.103,131.856,48.103z"/>
<path fill="#66171B" d="M206.2,58.004V15.259c-2.349-13.137-12.916-14.118-12.916-14.118h-27.155v71.766h28.77
	C206.641,69.182,206.2,58.004,206.2,58.004z M191.376,59.132c-2.201,4.02-4.33,4.363-9.346,4.069c0-21.308-0.196-35.269-0.196-51.32
	c5.871-1.568,10.081,2.527,9.59,8.934C191.424,33.451,191.376,42.541,191.376,59.132z"/>
<path fill="#66171B" d="M236.73,0.227c0,0-29.356,0.914-21.919,33.463c0,0,6.067,19.608,21.919,40.393
	c0,0,15.119-19.411,22.41-39.608C259.141,34.475,266.968,3.492,236.73,0.227z M243.644,34.399
	c-6.033,4.974-14.496,3.446-17.249-6.344c-1.7-6.855,2.559-14.216,10.142-14.556C247.471,14.236,251.066,26.296,243.644,34.399z"/>
<polygon fill="#66171B" points="275.775,11.484 264.229,11.464 264.229,1.141 302,1.141 302,10.942 290.648,10.942 290.648,72.906 
	275.873,72.906 "/>
</svg>
